<svg width="1367" height="1385" viewBox="0 0 1367 1385" fill="none" xmlns="http://www.w3.org/2000/svg">
<g clip-path="url(#clip0_258_986)">
<path d="M641.451 864.858H411.982C404.189 864.858 399.308 856.435 403.185 849.676L516.6 651.895C520.474 645.138 530.203 645.092 534.144 651.808L650.197 849.589C654.164 856.348 649.288 864.858 641.451 864.858Z" fill="url(#paint0_linear_258_986)"/>
<path d="M975.088 864.858H745.619C737.827 864.858 732.945 856.435 736.823 849.676L850.237 651.895C854.111 645.138 863.84 645.092 867.781 651.808L983.834 849.589C987.801 856.348 982.925 864.858 975.088 864.858Z" fill="url(#paint1_linear_258_986)"/>
<path d="M808.777 576.908H579.307C571.515 576.908 566.633 568.485 570.511 561.726L683.925 363.945C687.799 357.188 697.529 357.141 701.469 363.857L817.522 561.639C821.49 568.397 816.614 576.908 808.777 576.908Z" fill="url(#paint2_linear_258_986)"/>
<path d="M281.174 1218.54C224.334 1217.15 172.368 1186.11 144.198 1136.73L76.039 1017.25L74.5179 1014.62L72.4897 1011.1C71.8143 1009.93 71.2383 1008.71 70.7637 1007.45L69.3115 1003.57L65.2429 992.173L61.1237 980.714C38.7933 918.6 33.8222 850.911 54.5138 788.234C60.5822 769.853 67.2671 751.585 74.1589 736.181C75.5482 733.073 77.7711 728.243 77.7711 728.243L82.2189 719.821L195.236 526.101L10.5426 528.071C2.68138 528.156 -2.28161 519.653 1.65917 512.852L90.6683 359.18C92.4775 356.057 95.8118 354.13 99.422 354.122L477.122 353.271C484.934 353.252 489.832 361.702 485.932 368.471L233.173 807.129L226.316 830.53C225.107 834.65 224.229 838.862 223.687 843.123L221.373 861.347C220.787 865.978 220.598 870.65 220.815 875.312L221.639 893.102C221.892 898.602 222.708 904.062 224.068 909.398L227.652 923.442C229.443 930.467 232.169 937.219 235.757 943.52L385.018 1205.7C388.92 1212.56 383.843 1221.05 375.956 1220.85L281.174 1218.54Z" fill="url(#paint3_linear_258_986)"/>
<path d="M450.449 77.8409C480.073 29.3192 532.937 -0.159175 589.796 0.140942L727.368 0.864877H730.41H734.466C735.817 0.864877 737.164 0.976395 738.496 1.19743L742.579 1.87879L754.487 4.05463L766.473 6.2183C831.438 17.9391 892.556 47.4783 936.501 96.734C949.388 111.18 961.869 126.103 971.765 139.77C973.763 142.528 976.835 146.868 976.835 146.868L981.906 154.928L1093.19 349.648L1183.84 188.742C1187.69 181.894 1197.54 181.85 1201.46 188.661L1290.06 342.566C1291.86 345.695 1291.87 349.544 1290.07 352.675L1101.96 680.139C1098.06 686.912 1088.3 686.927 1084.38 680.166L830.803 241.983L813.965 224.345C810.998 221.238 807.79 218.371 804.37 215.773L789.741 204.657C786.025 201.832 782.07 199.334 777.925 197.19L762.105 189.008C757.213 186.479 752.075 184.453 746.774 182.965L732.816 179.043C725.837 177.084 718.624 176.068 711.374 176.024L409.644 174.172C401.756 174.124 396.941 165.483 401.05 158.751L450.449 77.8409Z" fill="url(#paint4_linear_258_986)"/>
<path d="M1346.84 790.513C1374.06 840.424 1373.16 900.938 1344.47 950.02L1275.06 1068.78L1273.53 1071.41L1271.51 1074.92C1270.83 1076.09 1270.06 1077.2 1269.2 1078.24L1266.57 1081.44L1258.73 1090.66L1250.87 1099.96C1208.23 1150.35 1152.08 1188.5 1087.45 1201.92C1068.49 1205.86 1049.33 1209.21 1032.54 1210.94C1029.15 1211.29 1023.86 1211.78 1023.86 1211.78L1014.34 1212.14L790.032 1211.14L884.084 1370.08C888.087 1376.84 883.203 1385.39 875.344 1385.38L697.732 1385.14C694.121 1385.14 690.785 1383.22 688.974 1380.09L499.385 1053.48C495.464 1046.73 500.334 1038.26 508.147 1038.25L1014.48 1037.78L1038.18 1032.02C1042.36 1031 1046.44 1029.66 1050.41 1028L1067.35 1020.89C1071.65 1019.08 1075.79 1016.91 1079.72 1014.39L1094.72 1004.78C1099.36 1001.81 1103.68 998.375 1107.62 994.528L1117.99 984.403C1123.18 979.34 1127.67 973.603 1131.33 967.347L1283.8 707.016C1287.79 700.209 1297.68 700.361 1301.45 707.286L1346.84 790.513Z" fill="url(#paint5_linear_258_986)"/>
</g>
<defs>
<linearGradient id="paint0_linear_258_986" x1="526.818" y1="636.729" x2="526.818" y2="864.858" gradientUnits="userSpaceOnUse">
<stop stop-color="#227778"/>
<stop offset="1" stop-color="#104445"/>
</linearGradient>
<linearGradient id="paint1_linear_258_986" x1="860.455" y1="636.729" x2="860.455" y2="864.858" gradientUnits="userSpaceOnUse">
<stop stop-color="#227778"/>
<stop offset="1" stop-color="#104445"/>
</linearGradient>
<linearGradient id="paint2_linear_258_986" x1="694.144" y1="348.779" x2="694.144" y2="576.908" gradientUnits="userSpaceOnUse">
<stop stop-color="#227778"/>
<stop offset="1" stop-color="#104445"/>
</linearGradient>
<linearGradient id="paint3_linear_258_986" x1="155.157" y1="1.01416" x2="153.129" y2="1241.03" gradientUnits="userSpaceOnUse">
<stop offset="0.302885" stop-color="#00CD56"/>
<stop offset="1" stop-color="#009C42"/>
</linearGradient>
<linearGradient id="paint4_linear_258_986" x1="780.853" y1="1231.9" x2="743.345" y2="-1.01332" gradientUnits="userSpaceOnUse">
<stop stop-color="#00923E"/>
<stop offset="0.846154" stop-color="#00CD56"/>
<stop offset="0.990385" stop-color="#00CD56"/>
</linearGradient>
<linearGradient id="paint5_linear_258_986" x1="661.015" y1="1397.52" x2="638.713" y2="2.37944" gradientUnits="userSpaceOnUse">
<stop stop-color="#00923E"/>
<stop offset="0.572115" stop-color="#00CD56"/>
<stop offset="0.625" stop-color="#00CD56"/>
</linearGradient>
<clipPath id="clip0_258_986">
<rect width="1367" height="1385" fill="white"/>
</clipPath>
</defs>
</svg>
