<svg width="192" height="196" viewBox="0 0 192 196" fill="none" xmlns="http://www.w3.org/2000/svg">
<g clip-path="url(#clip0_166_30)">
<path d="M90.0941 122.392H57.8643C56.7699 122.392 56.0842 121.2 56.6288 120.243L72.5583 92.2539C73.1024 91.2977 74.4689 91.2911 75.0224 92.2415L91.3224 120.231C91.8796 121.187 91.1948 122.392 90.0941 122.392Z" fill="#104445"/>
<path d="M136.955 122.392H104.725C103.63 122.392 102.945 121.2 103.489 120.243L119.419 92.2539C119.963 91.2977 121.329 91.2911 121.883 92.2415L138.183 120.231C138.74 121.187 138.055 122.392 136.955 122.392Z" fill="#104445"/>
<path d="M113.596 81.6417H81.3658C80.2713 81.6417 79.5856 80.4496 80.1303 79.4931L96.0598 51.5039C96.6039 50.5477 97.9704 50.5411 98.5239 51.4915L114.824 79.4808C115.381 80.4373 114.696 81.6417 113.596 81.6417Z" fill="#104445"/>
<path d="M39.4919 172.443C31.5085 172.246 24.2097 167.854 20.2532 160.866L10.6799 143.957L10.4663 143.585L10.1814 143.088C10.0866 142.922 10.0057 142.749 9.93899 142.571L9.73503 142.022L9.16359 140.409L8.58502 138.787C5.44864 129.997 4.75044 120.418 7.65665 111.548C8.50897 108.947 9.44788 106.362 10.4159 104.182C10.611 103.742 10.9232 103.058 10.9232 103.058L11.5479 101.867L27.4215 74.452L1.48074 74.7307C0.376596 74.7427 -0.320473 73.5395 0.233022 72.577L12.7347 50.8299C12.9888 50.388 13.4571 50.1153 13.9642 50.1142L67.0134 49.9937C68.1107 49.9911 68.7987 51.1869 68.2509 52.1448L32.75 114.222L31.7868 117.534C31.617 118.117 31.4937 118.713 31.4176 119.316L31.0926 121.895C31.0103 122.55 30.9838 123.211 31.0143 123.871L31.1299 126.389C31.1655 127.167 31.2801 127.94 31.4712 128.695L31.9746 130.682C32.2261 131.676 32.609 132.632 33.1129 133.524L54.0771 170.627C54.6251 171.597 53.9121 172.798 52.8043 172.771L39.4919 172.443Z" fill="#00CD56"/>
<path d="M63.2672 11.0157C67.4279 4.14905 74.853 -0.022619 82.8389 0.0198525L102.161 0.122301H102.589H103.158C103.348 0.122301 103.537 0.138083 103.724 0.169362L104.298 0.265786L105.97 0.573703L107.654 0.879898C116.778 2.53858 125.363 6.71886 131.535 13.6893C133.345 15.7337 135.098 17.8455 136.488 19.7797C136.768 20.17 137.2 20.7841 137.2 20.7841L137.912 21.9248L153.543 49.4807L166.274 26.71C166.816 25.7409 168.199 25.7346 168.75 26.6985L181.194 48.4786C181.447 48.9214 181.447 49.4661 181.194 49.9092L154.774 96.2507C154.227 97.2092 152.855 97.2112 152.306 96.2544L116.689 34.2444L114.324 31.7483C113.908 31.3087 113.457 30.9029 112.977 30.5353L110.922 28.9621C110.4 28.5624 109.845 28.2088 109.262 27.9055L107.04 26.7476C106.353 26.3897 105.632 26.1031 104.887 25.8924L102.927 25.3374C101.946 25.0602 100.933 24.9164 99.915 24.9101L57.5359 24.6481C56.4281 24.6412 55.7518 23.4185 56.329 22.4657L63.2672 11.0157Z" fill="#00CD56"/>
<path d="M189.168 111.87C192.991 118.934 192.865 127.497 188.835 134.443L179.086 151.249L178.872 151.622L178.588 152.119C178.493 152.284 178.384 152.441 178.264 152.589L177.895 153.041L176.794 154.346L175.689 155.662C169.7 162.793 161.814 168.192 152.736 170.091C150.074 170.649 147.382 171.122 145.024 171.367C144.548 171.417 143.804 171.486 143.804 171.486L142.467 171.537L110.963 171.396L124.173 193.888C124.735 194.845 124.049 196.055 122.945 196.054L97.9989 196.02C97.4918 196.019 97.0232 195.747 96.7688 195.305L70.1404 149.085C69.5897 148.129 70.2737 146.931 71.371 146.93L142.488 146.863L145.816 146.047C146.403 145.903 146.977 145.713 147.533 145.478L149.913 144.472C150.517 144.216 151.099 143.909 151.651 143.552L153.757 142.193C154.409 141.772 155.016 141.286 155.569 140.742L157.026 139.309C157.755 138.592 158.385 137.78 158.9 136.895L180.314 100.054C180.874 99.0907 182.264 99.1123 182.794 100.092L189.168 111.87Z" fill="#00CD56"/>
</g>
<defs>
<clipPath id="clip0_166_30">
<rect width="192" height="196" fill="white"/>
</clipPath>
</defs>
</svg>
